<svg viewBox="0 0 32 32" fill="none" xmlns="http://www.w3.org/2000/svg">
  <rect width="32" height="32" rx="6" fill="#0d1f19"/>
  <path d="M16 29V8" stroke="#f5f0e8" stroke-width="1.8" stroke-linecap="round"/>
  <circle cx="16" cy="5.5" r="2.5" fill="#f5f0e8"/>
  <path d="M16 22.5C16 22.5 6.5 18.5 8 11.5C12.5 13.5 16 18 16 22.5Z" fill="#f5f0e8"/>
  <path d="M16 22.5C16 22.5 25.5 18.5 24 11.5C19.5 13.5 16 18 16 22.5Z" fill="#f5f0e8"/>
  <path d="M16 15C16 15 8.5 12 9.5 6C13.5 8 16 11.5 16 15Z" fill="#f5f0e8"/>
  <path d="M16 15C16 15 23.5 12 22.5 6C18.5 8 16 11.5 16 15Z" fill="#f5f0e8"/>
</svg>
